# Blender v2.79 (sub 0) OBJ File: 'Room.blend'
# www.blender.org
mtllib Floor.mtl
o Circle.000_Circle.003
v -1.083411 -0.709158 -0.723912
v -1.277970 -0.709158 -0.254204
v -1.277970 -0.709158 0.254204
v -1.083411 -0.709158 0.723912
v -0.723911 -0.709158 1.083411
v -0.254204 -0.709158 1.277970
v 0.254204 -0.709158 1.277970
v 0.723912 -0.709158 1.083411
v 1.083411 -0.709158 0.723912
v 1.277970 -0.709158 0.254204
v 1.277970 -0.709158 -0.254204
v 1.083411 -0.709158 -0.723912
v 0.723912 -0.709158 -1.083411
v 0.254204 -0.709158 -1.277970
v -0.254205 -0.709158 -1.277970
v -0.723913 -0.709158 -1.083410
v -6.174038 -0.721364 -4.208424
v -7.282774 -0.721364 -1.531698
v -7.282772 -0.721364 1.365570
v -6.174035 -0.721364 4.042295
v -4.125356 -0.721364 6.090971
v -1.448630 -0.721364 7.199707
v 1.448637 -0.721364 7.199705
v 4.125362 -0.721364 6.090968
v 6.174038 -0.721364 4.042291
v 7.282774 -0.721364 1.365566
v 7.282773 -0.721364 -1.531700
v 6.174037 -0.721364 -4.208427
v 4.125358 -0.721364 -6.257106
v 1.448630 -0.721364 -7.365841
v -1.448639 -0.721364 -7.365839
v -4.125364 -0.721364 -6.257100
v -6.174038 -0.530671 -4.208424
v -7.282774 -0.530671 -1.531698
v -7.282772 -0.530671 1.365570
v -6.174035 -0.530671 4.042295
v -4.125356 -0.530671 6.090971
v -1.448630 -0.530671 7.199707
v 1.448637 -0.530671 7.199705
v 4.125362 -0.530671 6.090968
v 6.174038 -0.530671 4.042291
v 7.282774 -0.530671 1.365566
v 7.282773 -0.530671 -1.531700
v 6.174037 -0.530671 -4.208427
v 4.125358 -0.530671 -6.257106
v 1.448630 -0.530671 -7.365841
v -1.448639 -0.530671 -7.365839
v -4.125364 -0.530671 -6.257100
v -9.047119 -0.530671 -6.045088
v -10.671803 -0.530671 -2.122751
v -10.671802 -0.530671 2.122757
v -9.047113 -0.530671 6.045092
v -6.045085 -0.530671 9.047117
v -2.122749 -0.530671 10.671803
v 2.122759 -0.530671 10.671803
v 6.045093 -0.530671 9.047115
v 9.047119 -0.530671 6.045088
v 10.671804 -0.530671 2.122753
v 10.671803 -0.530671 -2.122754
v 9.047117 -0.530671 -6.045093
v 6.045089 -0.530671 -9.047121
v 2.122749 -0.530671 -10.671805
v -2.122761 -0.530671 -10.671803
v -6.045097 -0.530671 -9.047112
v -1.055620 -0.653966 -0.705343
v -1.245189 -0.653966 -0.247683
v -1.245189 -0.653966 0.247684
v -1.055620 -0.653966 0.705343
v -0.705343 -0.653966 1.055620
v -0.247683 -0.653966 1.245189
v 0.247684 -0.653966 1.245189
v 0.705343 -0.653966 1.055620
v 1.055620 -0.653966 0.705343
v 1.245189 -0.653966 0.247684
v 1.245189 -0.653966 -0.247683
v 1.055620 -0.653966 -0.705343
v 0.705343 -0.653966 -1.055620
v 0.247683 -0.653966 -1.245189
v -0.247684 -0.653966 -1.245189
v -0.705344 -0.653966 -1.055620
v -1.055620 -0.683410 -0.705343
v -1.245189 -0.683410 -0.247683
v -1.245189 -0.683410 0.247684
v -1.055620 -0.683410 0.705343
v -0.705343 -0.683410 1.055620
v -0.247683 -0.683410 1.245189
v 0.247684 -0.683410 1.245189
v 0.705343 -0.683410 1.055620
v 1.055620 -0.683410 0.705343
v 1.245189 -0.683410 0.247684
v 1.245189 -0.683410 -0.247683
v 1.055620 -0.683410 -0.705343
v 0.705343 -0.683410 -1.055620
v 0.247683 -0.683410 -1.245189
v -0.247684 -0.683410 -1.245189
v -0.705344 -0.683410 -1.055620
v -1.083411 -0.683410 -0.723912
v -1.277970 -0.683410 -0.254204
v -1.277970 -0.683410 0.254204
v -1.083411 -0.683410 0.723912
v -0.723911 -0.683410 1.083411
v -0.254204 -0.683410 1.277970
v 0.254204 -0.683410 1.277970
v 0.723912 -0.683410 1.083411
v 1.083411 -0.683410 0.723912
v 1.277970 -0.683410 0.254204
v 1.277970 -0.683410 -0.254204
v 1.083411 -0.683410 -0.723912
v 0.723912 -0.683410 -1.083411
v 0.254204 -0.683410 -1.277970
v -0.254205 -0.683410 -1.277970
v -0.723913 -0.683410 -1.083410
v 0.489058 -0.709158 -1.180691
v 2.786994 -0.721364 -6.811474
v 2.786994 -0.530671 -6.811474
v 4.083919 -0.530671 -9.859463
v 0.476513 -0.653966 -1.150405
v 0.476513 -0.683410 -1.150405
v 0.489058 -0.683410 -1.180691
v -0.489059 -0.709158 -1.180690
v -2.787002 -0.721364 -6.811471
v -2.787002 -0.530671 -6.811471
v -4.083930 -0.530671 -9.859457
v -0.476514 -0.653966 -1.150404
v -0.476514 -0.683410 -1.150404
v -0.489059 -0.683410 -1.180690
v -9.047119 -1.404928 -6.045088
v -10.671803 -1.404928 -2.122751
v -10.671802 -1.404928 2.122757
v -9.047113 -1.404928 6.045092
v -6.045085 -1.404928 9.047117
v -2.122749 -1.404928 10.671803
v 2.122759 -1.404928 10.671803
v 6.045093 -1.404928 9.047115
v 9.047119 -1.404928 6.045088
v 10.671804 -1.404928 2.122753
v 10.671803 -1.404928 -2.122754
v 9.047117 -1.404928 -6.045093
v 6.045089 -1.404928 -9.047121
v 2.122749 -1.404928 -10.671805
v -2.122761 -1.404928 -10.671803
v -6.045097 -1.404928 -9.047112
v 4.083919 -1.404928 -9.859463
v -4.083930 -1.404928 -9.859457
vt 0.437457 0.510563
vt 0.437422 0.486552
vt 0.438639 0.486777
vt 0.438664 0.510301
vt 0.549950 0.463643
vt 0.559303 0.485665
vt 0.558114 0.485931
vt 0.548946 0.464349
vt 0.446781 0.532618
vt 0.447789 0.531907
vt 0.532764 0.446800
vt 0.532102 0.447842
vt 0.464016 0.549244
vt 0.464661 0.548190
vt 0.510361 0.437737
vt 0.510143 0.438957
vt 0.510561 0.556435
vt 0.486512 0.557693
vt 0.486681 0.556466
vt 0.510290 0.555265
vt 0.486132 0.437843
vt 0.486392 0.439058
vt 0.521913 0.552216
vt 0.521466 0.551078
vt 0.463739 0.447132
vt 0.464443 0.448159
vt 0.550069 0.531349
vt 0.533043 0.547718
vt 0.532364 0.546678
vt 0.549093 0.530672
vt 0.446642 0.464279
vt 0.447683 0.464955
vt 0.555202 0.520364
vt 0.554096 0.519891
vt 0.559441 0.509385
vt 0.833823 0.435599
vt 0.834781 0.570007
vt 0.170578 0.435842
vt 0.220926 0.314490
vt 0.812770 0.631407
vt 0.312976 0.220859
vt 0.783579 0.690675
vt 0.688949 0.784254
vt 0.434089 0.169671
vt 0.630365 0.812281
vt 0.565880 0.168998
vt 0.437728 0.832219
vt 0.315911 0.781761
vt 0.568505 0.833870
vt 0.688219 0.219070
vt 0.222195 0.688973
vt 0.782383 0.312562
vt 0.171055 0.567504
vt 0.311048 0.789319
vt 0.214822 0.694120
vt 0.693099 0.211461
vt 0.789840 0.307381
vt 0.162275 0.569434
vt 0.842743 0.433645
vt 0.161743 0.434240
vt 0.843879 0.571485
vt 0.213393 0.309663
vt 0.820896 0.634828
vt 0.307820 0.213517
vt 0.790711 0.695723
vt 0.694262 0.791685
vt 0.432150 0.160896
vt 0.633722 0.820369
vt 0.567465 0.160129
vt 0.436052 0.841006
vt 0.569979 0.842394
vt 0.216670 0.075754
vt 0.400019 0.000100
vt 0.778409 0.924559
vt 0.688936 0.960387
vt 0.598143 0.000100
vt 0.404344 0.995310
vt 0.222270 0.921484
vt 0.599862 0.995996
vt 0.781646 0.075841
vt 0.080975 0.783695
vt 0.922850 0.216475
vt 0.002672 0.601825
vt 0.999900 0.401442
vt 0.000100 0.403086
vt 0.999858 0.603101
vt 0.075268 0.217393
vt 0.961973 0.693716
vt 0.922881 0.784425
vt 0.558231 0.509174
vt 0.555276 0.486525
vt 0.546533 0.465998
vt 0.547656 0.465207
vt 0.556605 0.486227
vt 0.441524 0.487354
vt 0.441539 0.509721
vt 0.440191 0.510013
vt 0.440163 0.487102
vt 0.555456 0.508679
vt 0.556799 0.508908
vt 0.450135 0.466599
vt 0.448971 0.465842
vt 0.551530 0.518783
vt 0.552773 0.519319
vt 0.466082 0.450624
vt 0.465295 0.449476
vt 0.530825 0.544282
vt 0.546724 0.528994
vt 0.547807 0.529751
vt 0.531577 0.545437
vt 0.486972 0.441959
vt 0.486680 0.440599
vt 0.520420 0.548420
vt 0.520928 0.549710
vt 0.509584 0.441854
vt 0.509827 0.440489
vt 0.466226 0.545711
vt 0.487120 0.553558
vt 0.486935 0.554928
vt 0.465508 0.546887
vt 0.509661 0.552363
vt 0.509956 0.553688
vt 0.530492 0.450300
vt 0.531232 0.449133
vt 0.450205 0.530252
vt 0.449081 0.531046
vt 0.216670 0.075754
vt 0.400019 0.000100
vt 0.778409 0.924559
vt 0.688936 0.960387
vt 0.598143 0.000100
vt 0.404344 0.995310
vt 0.222270 0.921484
vt 0.599862 0.995996
vt 0.781646 0.075841
vt 0.080975 0.783695
vt 0.922850 0.216475
vt 0.002672 0.601825
vt 0.999900 0.401442
vt 0.000100 0.403086
vt 0.999858 0.603101
vt 0.961973 0.693716
vt 0.922881 0.784425
vt 0.075268 0.217393
vn -0.7071 0.0000 0.7071
vn 0.9239 0.0000 -0.3827
vn -0.9239 0.0000 0.3827
vn 1.0000 0.0000 0.0000
vn -1.0000 0.0000 0.0000
vn 0.9239 0.0000 0.3827
vn -0.7071 0.0000 -0.7071
vn -0.9239 0.0000 -0.3827
vn 0.7071 0.0000 0.7071
vn -0.3827 0.0000 -0.9239
vn 0.3827 0.0000 0.9239
vn -0.0000 0.0000 -1.0000
vn 0.0000 0.0000 1.0000
vn 0.3827 0.0000 -0.9239
vn -0.3827 0.0000 0.9239
vn 0.0014 1.0000 -0.0014
vn -0.0008 1.0000 0.0019
vn 0.0008 1.0000 -0.0019
vn 0.0000 1.0000 0.0021
vn -0.0000 1.0000 -0.0020
vn 0.0008 1.0000 0.0019
vn -0.0008 1.0000 -0.0019
vn 0.0015 1.0000 0.0015
vn -0.0019 1.0000 -0.0008
vn -0.0014 1.0000 -0.0014
vn 0.0019 1.0000 0.0008
vn -0.0020 1.0000 -0.0000
vn 0.0020 1.0000 0.0000
vn -0.0019 1.0000 0.0008
vn 0.0019 1.0000 -0.0008
vn -0.0015 1.0000 0.0015
vn 0.7071 0.0000 -0.7071
vn -0.0000 1.0000 -0.0000
vn 0.0000 -1.0000 0.0000
usemtl None
s off
f 4/1/1 5/2/1 101/3/1 100/4/1
f 11/5/2 12/6/2 108/7/2 107/8/2
f 3/9/3 4/1/3 100/4/3 99/10/3
f 10/11/4 11/5/4 107/8/4 106/12/4
f 2/13/5 3/9/5 99/10/5 98/14/5
f 9/15/6 10/11/6 106/12/6 105/16/6
f 16/17/7 1/18/7 97/19/7 112/20/7
f 1/18/8 2/13/8 98/14/8 97/19/8
f 8/21/9 9/15/9 105/16/9 104/22/9
f 120/23/10 16/17/10 112/20/10 126/24/10
f 7/25/11 8/21/11 104/22/11 103/26/11
f 14/27/12 15/28/12 111/29/12 110/30/12
f 6/31/13 7/25/13 103/26/13 102/32/13
f 113/33/14 14/27/14 110/30/14 119/34/14
f 5/2/15 6/31/15 102/32/15 101/3/15
f 13/35/16 12/6/16 28/36/16 29/37/16
f 6/31/17 5/2/17 21/38/17 22/39/17
f 113/33/18 13/35/18 29/37/18 114/40/18
f 7/25/19 6/31/19 22/39/19 23/41/19
f 15/28/20 14/27/20 30/42/20 31/43/20
f 8/21/21 7/25/21 23/41/21 24/44/21
f 120/23/22 15/28/22 31/43/22 121/45/22
f 9/15/23 8/21/23 24/44/23 25/46/23
f 2/13/24 1/18/24 17/47/24 18/48/24
f 1/18/25 16/17/25 32/49/25 17/47/25
f 10/11/26 9/15/26 25/46/26 26/50/26
f 3/9/27 2/13/27 18/48/27 19/51/27
f 11/5/28 10/11/28 26/50/28 27/52/28
f 4/1/29 3/9/29 19/51/29 20/53/29
f 12/6/30 11/5/30 27/52/30 28/36/30
f 5/2/31 4/1/31 20/53/31 21/38/31
f 19/51/4 18/48/4 34/54/4 35/55/4
f 27/52/5 26/50/5 42/56/5 43/57/5
f 20/53/2 19/51/2 35/55/2 36/58/2
f 28/36/3 27/52/3 43/57/3 44/59/3
f 21/38/32 20/53/32 36/58/32 37/60/32
f 29/37/1 28/36/1 44/59/1 45/61/1
f 22/39/14 21/38/14 37/60/14 38/62/14
f 114/40/15 29/37/15 45/61/15 115/63/15
f 23/41/12 22/39/12 38/62/12 39/64/12
f 31/43/13 30/42/13 46/65/13 47/66/13
f 24/44/10 23/41/10 39/64/10 40/67/10
f 121/45/11 31/43/11 47/66/11 122/68/11
f 25/46/7 24/44/7 40/67/7 41/69/7
f 18/48/6 17/47/6 33/70/6 34/54/6
f 17/47/9 32/49/9 48/71/9 33/70/9
f 26/50/8 25/46/8 41/69/8 42/56/8
f 40/67/33 39/64/33 55/72/33 56/73/33
f 122/68/33 47/66/33 63/74/33 123/75/33
f 41/69/33 40/67/33 56/73/33 57/76/33
f 34/54/33 33/70/33 49/77/33 50/78/33
f 33/70/33 48/71/33 64/79/33 49/77/33
f 42/56/33 41/69/33 57/76/33 58/80/33
f 35/55/33 34/54/33 50/78/33 51/81/33
f 43/57/33 42/56/33 58/80/33 59/82/33
f 36/58/33 35/55/33 51/81/33 52/83/33
f 44/59/33 43/57/33 59/82/33 60/84/33
f 37/60/33 36/58/33 52/83/33 53/85/33
f 45/61/33 44/59/33 60/84/33 61/86/33
f 38/62/33 37/60/33 53/85/33 54/87/33
f 115/63/33 45/61/33 61/86/33 116/88/33
f 39/64/33 38/62/33 54/87/33 55/72/33
f 47/66/33 46/65/33 62/89/33 63/74/33
f 12/6/32 13/35/32 109/90/32 108/7/32
f 76/91/2 75/92/2 91/93/2 92/94/2
f 69/95/1 68/96/1 84/97/1 85/98/1
f 77/99/32 76/91/32 92/94/32 93/100/32
f 70/101/15 69/95/15 85/98/15 86/102/15
f 117/103/14 77/99/14 93/100/14 118/104/14
f 71/105/13 70/101/13 86/102/13 87/106/13
f 79/107/12 78/108/12 94/109/12 95/110/12
f 72/111/11 71/105/11 87/106/11 88/112/11
f 124/113/10 79/107/10 95/110/10 125/114/10
f 73/115/9 72/111/9 88/112/9 89/116/9
f 66/117/8 65/118/8 81/119/8 82/120/8
f 65/118/7 80/121/7 96/122/7 81/119/7
f 74/123/6 73/115/6 89/116/6 90/124/6
f 67/125/5 66/117/5 82/120/5 83/126/5
f 75/92/4 74/123/4 90/124/4 91/93/4
f 68/96/3 67/125/3 83/126/3 84/97/3
f 95/110/33 94/109/33 110/30/33 111/29/33
f 88/112/33 87/106/33 103/26/33 104/22/33
f 125/114/33 95/110/33 111/29/33 126/24/33
f 89/116/33 88/112/33 104/22/33 105/16/33
f 82/120/33 81/119/33 97/19/33 98/14/33
f 81/119/33 96/122/33 112/20/33 97/19/33
f 90/124/33 89/116/33 105/16/33 106/12/33
f 83/126/33 82/120/33 98/14/33 99/10/33
f 91/93/33 90/124/33 106/12/33 107/8/33
f 84/97/33 83/126/33 99/10/33 100/4/33
f 92/94/33 91/93/33 107/8/33 108/7/33
f 85/98/33 84/97/33 100/4/33 101/3/33
f 93/100/33 92/94/33 108/7/33 109/90/33
f 86/102/33 85/98/33 101/3/33 102/32/33
f 118/104/33 93/100/33 109/90/33 119/34/33
f 87/106/33 86/102/33 102/32/33 103/26/33
f 66/117/33 67/125/33 68/96/33 69/95/33 70/101/33 71/105/33 72/111/33 73/115/33 74/123/33 75/92/33 76/91/33 77/99/33 117/103/33 78/108/33 79/107/33 124/113/33 80/121/33 65/118/33
f 94/109/33 118/104/33 119/34/33 110/30/33
f 78/108/14 117/103/14 118/104/14 94/109/14
f 46/65/33 115/63/33 116/88/33 62/89/33
f 30/42/15 114/40/15 115/63/15 46/65/15
f 14/27/18 113/33/18 114/40/18 30/42/18
f 13/35/14 113/33/14 119/34/14 109/90/14
f 96/122/33 125/114/33 126/24/33 112/20/33
f 80/121/10 124/113/10 125/114/10 96/122/10
f 48/71/33 122/68/33 123/75/33 64/79/33
f 32/49/11 121/45/11 122/68/11 48/71/11
f 16/17/22 120/23/22 121/45/22 32/49/22
f 15/28/10 120/23/10 126/24/10 111/29/10
f 56/73/11 55/72/11 133/127/11 134/128/11
f 123/75/10 63/74/10 141/129/10 144/130/10
f 57/76/9 56/73/9 134/128/9 135/131/9
f 50/78/8 49/77/8 127/132/8 128/133/8
f 49/77/7 64/79/7 142/134/7 127/132/7
f 58/80/6 57/76/6 135/131/6 136/135/6
f 51/81/5 50/78/5 128/133/5 129/136/5
f 59/82/4 58/80/4 136/135/4 137/137/4
f 52/83/3 51/81/3 129/136/3 130/138/3
f 64/79/10 123/75/10 144/130/10 142/134/10
f 60/84/2 59/82/2 137/137/2 138/139/2
f 53/85/1 52/83/1 130/138/1 131/140/1
f 61/86/32 60/84/32 138/139/32 139/141/32
f 62/89/14 116/88/14 143/142/14 140/143/14
f 54/87/15 53/85/15 131/140/15 132/144/15
f 116/88/14 61/86/14 139/141/14 143/142/14
f 55/72/13 54/87/13 132/144/13 133/127/13
f 63/74/12 62/89/12 140/143/12 141/129/12
f 128/133/34 127/132/34 142/134/34 144/130/34 141/129/34 140/143/34 143/142/34 139/141/34 138/139/34 137/137/34 136/135/34 135/131/34 134/128/34 133/127/34 132/144/34 131/140/34 130/138/34 129/136/34
